<?xml version="1.0" encoding="UTF-8" standalone="no"?>
<svg
   viewBox="0 0 16 16"
   version="1.1"
   id="svg4"
   sodipodi:docname="pluma-tbl-brd-outer-h.svg"
   inkscape:version="1.4 (e7c3feb100, 2024-10-09)"
   xmlns:inkscape="http://www.inkscape.org/namespaces/inkscape"
   xmlns:sodipodi="http://sodipodi.sourceforge.net/DTD/sodipodi-0.dtd"
   xmlns="http://www.w3.org/2000/svg"
   xmlns:svg="http://www.w3.org/2000/svg">
  <defs
     id="defs4" />
  <sodipodi:namedview
     id="namedview4"
     pagecolor="#ffffff"
     bordercolor="#000000"
     borderopacity="0.25"
     inkscape:showpageshadow="2"
     inkscape:pageopacity="0.0"
     inkscape:pagecheckerboard="0"
     inkscape:deskcolor="#d1d1d1"
     inkscape:zoom="22.625"
     inkscape:cx="-0.81767956"
     inkscape:cy="5.878453"
     inkscape:window-width="1912"
     inkscape:window-height="935"
     inkscape:window-x="0"
     inkscape:window-y="0"
     inkscape:window-maximized="1"
     inkscape:current-layer="svg4" />
  <path
     d="M 1.5000001,1.4999997 H 14.5 V 14.5 H 1.5000001 Z"
     fill="#fafafa"
     id="path1" />
  <g
     id="g5"
     transform="translate(0.51104973,-0.5220995)">
    <g
       id="g4"
       style="fill:#fb983b;fill-opacity:1">
      <path
         d="M 1,1 C 0.446,1 0,1.446 0,2 V 15 H 1 V 9 8 2 h 6 1 6 v 6 1 6 h 1 V 9 8 2 C 15,1.446 14.554,1 14,1 H 8 7 Z"
         fill="#3a3a38"
         id="path2"
         style="fill:#fb983b;fill-opacity:1" />
      <path
         d="m 13.977901,16.044199 c 0.554,0 1,-0.446 1,-1 V 2.0441989 h -1 v 6 1 6.0000001 h -6.0000004 -1 -6.00000005 v -6.0000001 -1 -6 h -1 v 6 1 6.0000001 c 0,0.554 0.446,1 1,1 h 6.00000005 1 z"
         fill="#3a3a38"
         id="path2-3"
         style="fill:#fb983b;fill-opacity:1" />
    </g>
    <path
       d="M 7,2 V 8 H 1 v 1 h 6 v 6 H 8 V 9 h 6 V 8 H 8 V 2 Z"
       fill="#797774"
       id="path4" />
  </g>
  <path
     d="M 0.48618776,7.4861878 H 15.486188 v 1 H 0.48618776 Z"
     fill="#fb983b"
     id="path3" />
</svg>
